name rise44.9368peak50.754fall52.0217.mot
datacolumns 19
datarows 29
range 19.82992900000000 19.87659500000000
endheader
time	ground_force1_vx	ground_force1_vy	ground_force1_vz	ground_force1_px	ground_force1_py	ground_force1_pz	ground_force2_vx	ground_force2_vy	ground_force2_vz	ground_force2_px	ground_force2_py	ground_force2_pz	ground_torque1_x	ground_torque1_y	ground_torque1_z	ground_torque2_x	ground_torque2_y	ground_torque2_z	
19.82992900000000	-70.42208100000001	815.74634200000003	64.90454699999999	0.12870200000000	0.00000000000000	0.17391300000000	-1.62732000000000	16.06893300000000	4.04567300000000	0.00000000000000	0.00000000000000	0.00000000000000	0.00000000000000	39.97635600000000	0.00000000000000	0.00000000000000	1.79085200000000	0.00000000000000	
19.83159400000000	-70.97161100000000	814.34628799999996	64.80843100000000	0.12808400000000	0.00000000000000	0.17376900000000	-1.99451300000000	21.46383100000000	5.19528000000000	0.00000000000000	0.00000000000000	0.00000000000000	0.00000000000000	39.98145500000000	0.00000000000000	0.00000000000000	2.31036000000000	0.00000000000000	
19.83325900000000	-71.53262500000000	812.81464900000003	64.69548100000000	0.12747900000000	0.00000000000000	0.17362400000000	-2.34449700000000	27.34798900000000	6.39045900000000	0.35831600000000	0.00000000000000	-0.04216900000000	0.00000000000000	39.98820300000000	0.00000000000000	0.00000000000000	5.04482100000000	0.00000000000000	
19.83493300000000	-72.10512100000000	811.14929199999995	64.56507999999999	0.12688600000000	0.00000000000000	0.17347700000000	-2.65841400000000	33.60224300000000	7.59337200000000	0.36774400000000	0.00000000000000	-0.04271000000000	0.00000000000000	39.99654200000000	0.00000000000000	0.00000000000000	6.08388600000000	0.00000000000000	
19.83659300000000	-72.68902100000000	809.34813099999997	64.41661499999999	0.12630400000000	0.00000000000000	0.17332900000000	-2.91822300000000	40.10029700000000	8.76618900000000	0.37623400000000	0.00000000000000	-0.04321000000000	0.00000000000000	40.00638700000000	0.00000000000000	0.00000000000000	7.11928200000000	0.00000000000000	
19.83826000000000	-73.28417500000000	807.40913599999999	64.24947700000000	0.12573400000000	0.00000000000000	0.17317900000000	-3.10790900000000	46.71913100000000	9.87388800000000	0.38391300000000	0.00000000000000	-0.04367900000000	0.00000000000000	40.01762300000000	0.00000000000000	0.00000000000000	8.12016800000000	0.00000000000000	
19.83992900000000	-73.89035100000000	805.33032800000001	64.06306499999999	0.12517300000000	0.00000000000000	0.17302800000000	-3.21443500000000	53.34826000000000	10.88660200000000	0.39088500000000	0.00000000000000	-0.04412200000000	0.00000000000000	40.03010600000000	0.00000000000000	0.00000000000000	9.05926800000000	0.00000000000000	
19.84159100000000	-74.50723700000000	803.10978599999999	63.85678500000000	0.12462100000000	0.00000000000000	0.17287600000000	-3.22835100000000	59.89686600000000	11.78127100000000	0.39723300000000	0.00000000000000	-0.04454300000000	0.00000000000000	40.04366300000000	0.00000000000000	0.00000000000000	9.91452000000000	0.00000000000000	
19.84326200000000	-75.13443900000000	800.74564299999997	63.63005700000000	0.12407700000000	0.00000000000000	0.17272200000000	-3.14402500000000	66.29829900000000	12.54252100000000	0.40302800000000	0.00000000000000	-0.04494600000000	0.00000000000000	40.05809200000000	0.00000000000000	0.00000000000000	10.67007800000000	0.00000000000000	
19.84493300000000	-75.77147700000000	798.23609199999999	63.38231600000000	0.12354100000000	0.00000000000000	0.17256600000000	-2.95953900000000	72.51189300000000	13.16277000000000	0.40833000000000	0.00000000000000	-0.04533600000000	0.00000000000000	40.07316100000000	0.00000000000000	0.00000000000000	11.31665400000000	0.00000000000000	
19.84659400000000	-76.41778400000000	795.57938500000000	63.11301300000000	0.12301200000000	0.00000000000000	0.17240900000000	-2.67629200000000	78.52235000000000	13.64169000000000	0.41318800000000	0.00000000000000	-0.04571300000000	0.00000000000000	40.08861300000000	0.00000000000000	0.00000000000000	11.85125300000000	0.00000000000000	
19.84826400000000	-77.07270600000000	792.77383999999995	62.82162100000000	0.12248700000000	0.00000000000000	0.17225000000000	-2.29840600000000	84.33714400000000	13.98515400000000	0.41764600000000	0.00000000000000	-0.04608000000000	0.00000000000000	40.10415900000000	0.00000000000000	0.00000000000000	12.27645100000000	0.00000000000000	
19.84993200000000	-77.73550000000000	789.81783800000005	62.50763400000000	0.12196800000000	0.00000000000000	0.17208900000000	-1.83200600000000	89.98249600000000	14.20386600000000	0.42174100000000	0.00000000000000	-0.04643800000000	0.00000000000000	40.11948600000000	0.00000000000000	0.00000000000000	12.59931500000000	0.00000000000000	
19.85159500000000	-78.40533200000000	786.70982900000001	62.17057300000000	0.12145200000000	0.00000000000000	0.17192600000000	-1.28446800000000	95.49851099999999	14.31182200000000	0.42550500000000	0.00000000000000	-0.04679000000000	0.00000000000000	40.13425200000000	0.00000000000000	0.00000000000000	12.83015000000000	0.00000000000000	
19.85326200000000	-79.08128000000001	783.44833700000004	61.80998500000000	0.12093800000000	0.00000000000000	0.17176200000000	-0.66368800000000	100.93402000000000	14.32477800000000	0.42896600000000	0.00000000000000	-0.04713600000000	0.00000000000000	40.14809000000000	0.00000000000000	0.00000000000000	12.98119100000000	0.00000000000000	
19.85492800000000	-79.76232800000000	780.03196000000003	61.42545200000000	0.12042600000000	0.00000000000000	0.17159600000000	0.02255800000000	106.34160199999999	14.25882900000000	0.43214900000000	0.00000000000000	-0.04747600000000	0.00000000000000	40.16060900000000	0.00000000000000	0.00000000000000	13.06536800000000	0.00000000000000	
19.85659500000000	-80.44737499999999	776.45937600000002	61.01658700000000	0.11991500000000	0.00000000000000	0.17142700000000	0.76713600000000	111.77314699999999	14.12921000000000	0.43507600000000	0.00000000000000	-0.04781300000000	0.00000000000000	40.17139300000000	0.00000000000000	0.00000000000000	13.09522300000000	0.00000000000000	
19.85825800000000	-81.13522600000000	772.72934499999997	60.58304100000000	0.11940300000000	0.00000000000000	0.17125700000000	1.56393400000000	117.27622100000001	13.94937000000000	0.43776700000000	0.00000000000000	-0.04814500000000	0.00000000000000	40.18000300000000	0.00000000000000	0.00000000000000	13.08205000000000	0.00000000000000	
19.85993000000000	-81.82460000000000	768.84071700000004	60.12450300000000	0.11889000000000	0.00000000000000	0.17108400000000	2.40809400000000	122.89136300000000	13.73033400000000	0.44023800000000	0.00000000000000	-0.04847400000000	0.00000000000000	40.18598000000000	0.00000000000000	0.00000000000000	13.03528600000000	0.00000000000000	
19.86159400000000	-82.51412900000000	764.79243299999996	59.64070400000000	0.11837500000000	0.00000000000000	0.17091000000000	3.29611100000000	128.65037300000000	13.48036900000000	0.44250700000000	0.00000000000000	-0.04880000000000	0.00000000000000	40.18884400000000	0.00000000000000	0.00000000000000	12.96214800000000	0.00000000000000	
19.86326500000000	-83.20235900000000	760.58353000000000	59.13142100000000	0.11785600000000	0.00000000000000	0.17073300000000	4.22580400000000	134.57552600000000	13.20490700000000	0.44458600000000	0.00000000000000	-0.04912400000000	0.00000000000000	40.18809500000000	0.00000000000000	0.00000000000000	12.86751000000000	0.00000000000000	
19.86493000000000	-83.88775300000000	756.21314800000005	58.59647700000000	0.11733300000000	0.00000000000000	0.17055400000000	5.19619100000000	140.67961000000000	12.90669900000000	0.44648900000000	0.00000000000000	-0.04944500000000	0.00000000000000	40.18321700000000	0.00000000000000	0.00000000000000	12.75398500000000	0.00000000000000	
19.86659500000000	-84.56869500000001	751.68053099999997	58.03574100000000	0.11680500000000	0.00000000000000	0.17037300000000	6.20729600000000	146.96664000000001	12.58613700000000	0.44822700000000	0.00000000000000	-0.04976300000000	0.00000000000000	40.17367900000000	0.00000000000000	0.00000000000000	12.62216600000000	0.00000000000000	
19.86826400000000	-85.24349100000001	746.98503700000003	57.44913800000000	0.11627100000000	0.00000000000000	0.17019000000000	7.25990500000000	153.43305599999999	12.24169300000000	0.44981100000000	0.00000000000000	-0.05007900000000	0.00000000000000	40.15893500000000	0.00000000000000	0.00000000000000	12.47097200000000	0.00000000000000	
19.86993100000000	-85.91037100000000	742.12613699999997	56.83664300000000	0.11573000000000	0.00000000000000	0.17000400000000	8.35531700000000	160.06924300000000	11.87042500000000	0.45125000000000	0.00000000000000	-0.05039200000000	0.00000000000000	40.13842800000000	0.00000000000000	0.00000000000000	12.29807300000000	0.00000000000000	
19.87159300000000	-86.56749900000000	737.10342300000002	56.19828600000000	0.11518100000000	0.00000000000000	0.16981600000000	9.49508300000000	166.86118600000000	11.46849200000000	0.45255500000000	0.00000000000000	-0.05070400000000	0.00000000000000	40.11159000000000	0.00000000000000	0.00000000000000	12.10032400000000	0.00000000000000	
19.87326400000000	-87.21297100000000	731.91661699999997	55.53415500000000	0.11462300000000	0.00000000000000	0.16962500000000	10.68078300000000	173.79212000000001	11.03164000000000	0.45373200000000	0.00000000000000	-0.05101200000000	0.00000000000000	40.07784600000000	0.00000000000000	0.00000000000000	11.87418500000000	0.00000000000000	
19.87493000000000	-87.84482400000000	726.56556699999999	54.84439400000000	0.11405600000000	0.00000000000000	0.16943200000000	11.91382200000000	180.84405100000001	10.55564000000000	0.45478900000000	0.00000000000000	-0.05131900000000	0.00000000000000	40.03661300000000	0.00000000000000	0.00000000000000	11.61610100000000	0.00000000000000	
19.87659500000000	-88.46103700000000	721.05026299999997	54.12921000000000	0.11347900000000	0.00000000000000	0.16923700000000	13.19528400000000	187.99906500000000	10.03663600000000	0.45573400000000	0.00000000000000	-0.05162200000000	0.00000000000000	39.98730700000000	0.00000000000000	0.00000000000000	11.32281400000000	0.00000000000000	
